<?xml version="1.0" encoding="UTF-8"?>
<svg viewBox="0 0 960 520" xmlns="http://www.w3.org/2000/svg">
  <defs>
    <marker id="b-purple" markerWidth="8" markerHeight="6" refX="8" refY="3" orient="auto"><path d="M0,0 L8,3 L0,6" fill="#6c63ff"/></marker>
    <marker id="b-green" markerWidth="8" markerHeight="6" refX="8" refY="3" orient="auto"><path d="M0,0 L8,3 L0,6" fill="#00d4aa"/></marker>
    <marker id="b-yellow" markerWidth="8" markerHeight="6" refX="8" refY="3" orient="auto"><path d="M0,0 L8,3 L0,6" fill="#ffd93d"/></marker>
  </defs>

  <!-- Cluster background -->
  <rect x="16" y="12" width="928" height="496" rx="16" fill="#0d0f18" stroke="#2a2e45" stroke-width="1.5"/>
  <text x="480" y="38" text-anchor="middle" fill="#3a3f5c" font-size="13" font-weight="700" letter-spacing=".1em">KUBERNETES CLUSTER</text>

  <!-- NS traefik -->
  <rect x="36" y="54" width="300" height="146" rx="12" fill="#131522" stroke="#ffd93d" stroke-width="1" stroke-opacity=".4"/>
  <text x="52" y="74" fill="#ffd93d" font-size="10" font-weight="700" opacity=".7">namespace: traefik</text>
  <rect x="56" y="88" width="260" height="60" rx="10" fill="#1a1d2e" stroke="#ffd93d" stroke-width="1.3"/>
  <text x="186" y="113" text-anchor="middle" fill="#ffd93d" font-size="14" font-weight="700">Traefik</text>
  <text x="186" y="134" text-anchor="middle" fill="#9ca3af" font-size="10">IngressRoute · /metrics · access logs JSON</text>
  <rect x="216" y="152" width="76" height="20" rx="5" fill="rgba(255,217,61,.1)"/>
  <text x="254" y="166" text-anchor="middle" fill="#ffd93d" font-size="9" font-weight="600">Helm chart</text>

  <!-- NS default -->
  <rect x="36" y="212" width="300" height="110" rx="12" fill="#131522" stroke="#00d4aa" stroke-width="1" stroke-opacity=".4"/>
  <text x="52" y="232" fill="#00d4aa" font-size="10" font-weight="700" opacity=".7">namespace: default</text>
  <rect x="56" y="246" width="260" height="58" rx="10" fill="rgba(0,212,170,.08)" stroke="#00d4aa" stroke-width="1.2"/>
  <text x="186" y="269" text-anchor="middle" fill="#00d4aa" font-size="13" font-weight="700">training-app</text>
  <text x="186" y="289" text-anchor="middle" fill="#9ca3af" font-size="10">Deployment x3 · Service · IngressRoute</text>
  <line x1="186" y1="148" x2="186" y2="244" stroke="#00d4aa" stroke-width="1.5" stroke-dasharray="5,3" marker-end="url(#b-green)"/>

  <!-- NS monitoring -->
  <rect x="390" y="54" width="540" height="390" rx="12" fill="#131522" stroke="#6c63ff" stroke-width="1" stroke-opacity=".4"/>
  <text x="406" y="74" fill="#6c63ff" font-size="10" font-weight="700" opacity=".7">namespace: monitoring</text>

  <!-- kube-prometheus-stack banner -->
  <rect x="410" y="86" width="500" height="28" rx="6" fill="rgba(108,99,255,.08)"/>
  <text x="660" y="105" text-anchor="middle" fill="#6c63ff" font-size="12" font-weight="700">kube-prometheus-stack  (Helmfile)</text>

  <!-- Prometheus -->
  <rect x="420" y="128" width="180" height="54" rx="9" fill="#1a1d2e" stroke="#6c63ff" stroke-width="1.3" style="filter:drop-shadow(0 0 6px rgba(108,99,255,.3))"/>
  <text x="510" y="153" text-anchor="middle" fill="#e4e4e7" font-size="13" font-weight="700">Prometheus</text>
  <text x="510" y="172" text-anchor="middle" fill="#9ca3af" font-size="9.5">retention 7d · PVC 10Gi</text>
  <!-- Alertmanager -->
  <rect x="616" y="128" width="148" height="54" rx="9" fill="#1a1d2e" stroke="#ff6b6b" stroke-width="1.2"/>
  <text x="690" y="153" text-anchor="middle" fill="#ff6b6b" font-size="13" font-weight="700">Alertmanager</text>
  <text x="690" y="172" text-anchor="middle" fill="#9ca3af" font-size="9.5">webhook receiver</text>
  <!-- Grafana -->
  <rect x="780" y="128" width="108" height="54" rx="9" fill="#1a1d2e" stroke="#ff6b6b" stroke-width="1"/>
  <text x="834" y="153" text-anchor="middle" fill="#ff6b6b" font-size="13" font-weight="700">Grafana</text>
  <text x="834" y="172" text-anchor="middle" fill="#9ca3af" font-size="9.5">PVC 5Gi</text>

  <!-- DaemonSets -->
  <rect x="420" y="200" width="140" height="36" rx="7" fill="#1a1d2e" stroke="#2a2e45" stroke-width="1"/>
  <text x="490" y="223" text-anchor="middle" fill="#9ca3af" font-size="10">node-exporter</text>
  <rect x="572" y="200" width="160" height="36" rx="7" fill="#1a1d2e" stroke="#2a2e45" stroke-width="1"/>
  <text x="652" y="223" text-anchor="middle" fill="#9ca3af" font-size="10">kube-state-metrics</text>
  <text x="420" y="256" fill="#9ca3af" font-size="9" font-style="italic">DaemonSet</text>
  <text x="572" y="256" fill="#9ca3af" font-size="9" font-style="italic">Deployment</text>

  <!-- CRDs -->
  <text x="420" y="284" fill="#6c63ff" font-size="10" font-weight="700" opacity=".6">CUSTOM RESOURCES (CRDs)</text>
  <rect x="420" y="296" width="150" height="36" rx="7" fill="rgba(108,99,255,.08)" stroke="#6c63ff" stroke-width="1" stroke-dasharray="4,2"/>
  <text x="495" y="319" text-anchor="middle" fill="#6c63ff" font-size="10.5" font-weight="600">ServiceMonitor</text>
  <rect x="582" y="296" width="150" height="36" rx="7" fill="rgba(108,99,255,.08)" stroke="#6c63ff" stroke-width="1" stroke-dasharray="4,2"/>
  <text x="657" y="319" text-anchor="middle" fill="#6c63ff" font-size="10.5" font-weight="600">PrometheusRule</text>
  <rect x="744" y="296" width="160" height="36" rx="7" fill="rgba(108,99,255,.08)" stroke="#6c63ff" stroke-width="1" stroke-dasharray="4,2"/>
  <text x="824" y="319" text-anchor="middle" fill="#6c63ff" font-size="10.5" font-weight="600">Dashboard ConfigMap</text>

  <!-- CRDs arrows -->
  <line x1="495" y1="296" x2="495" y2="184" stroke="#6c63ff" stroke-width="1.2" stroke-dasharray="4,3" marker-end="url(#b-purple)"/>
  <line x1="657" y1="296" x2="550" y2="184" stroke="#6c63ff" stroke-width="1.2" stroke-dasharray="4,3" marker-end="url(#b-purple)"/>
  <line x1="824" y1="296" x2="834" y2="184" stroke="#6c63ff" stroke-width="1.2" stroke-dasharray="4,3" marker-end="url(#b-purple)"/>

  <!-- ServiceMonitor → Traefik -->
  <path d="M420,314 L370,314 Q352,314 352,290 L352,135 Q352,118 336,118" stroke="#ffd93d" stroke-width="1.3" stroke-dasharray="5,3" fill="none" marker-end="url(#b-yellow)"/>
  <text x="358" y="220" fill="#ffd93d" font-size="9" font-weight="600" transform="rotate(-90,358,220)">scrape /metrics</text>

  <!-- Helmfile section -->
  <rect x="420" y="350" width="490" height="74" rx="8" fill="rgba(0,212,170,.04)" stroke="#00d4aa" stroke-width="1" stroke-opacity=".4"/>
  <text x="435" y="372" fill="#00d4aa" font-size="10" font-weight="700">helmfile.yaml</text>
  <text x="450" y="392" fill="#9ca3af" font-size="10">traefik/traefik</text>
  <rect x="600" y="382" width="56" height="18" rx="4" fill="rgba(255,217,61,.1)"/><text x="628" y="395" text-anchor="middle" fill="#ffd93d" font-size="8.5" font-weight="600">chart</text>
  <text x="450" y="412" fill="#9ca3af" font-size="10">prometheus-community/kube-prometheus-stack</text>
  <rect x="770" y="402" width="56" height="18" rx="4" fill="rgba(108,99,255,.1)"/><text x="798" y="415" text-anchor="middle" fill="#6c63ff" font-size="8.5" font-weight="600">chart</text>

  <!-- Manifests section -->
  <rect x="36" y="340" width="300" height="130" rx="10" fill="#131522" stroke="#2a2e45" stroke-width="1"/>
  <text x="52" y="362" fill="#e4e4e7" font-size="10" font-weight="700">manifests/</text>
  <text x="60" y="382" fill="#00d4aa" font-size="10">training-app.yaml</text>
  <text x="210" y="382" fill="#9ca3af" font-size="9">Deploy + Svc + IngressRoute</text>
  <text x="60" y="402" fill="#6c63ff" font-size="10">servicemonitor-traefik.yaml</text>
  <text x="60" y="422" fill="#6c63ff" font-size="10">prometheusrule-app.yaml</text>
  <text x="60" y="442" fill="#6c63ff" font-size="10">dashboard-configmap.yaml</text>
  <text x="248" y="442" fill="#9ca3af" font-size="9">Grafana sidecar</text>

  <!-- Legend -->
  <rect x="50" y="488" width="10" height="10" rx="2" fill="#6c63ff"/>
  <text x="66" y="497" fill="#9ca3af" font-size="9.5">Prometheus Operator CRDs</text>
  <rect x="250" y="488" width="10" height="10" rx="2" fill="#ffd93d"/>
  <text x="266" y="497" fill="#9ca3af" font-size="9.5">Traefik + metrics</text>
  <rect x="400" y="488" width="10" height="10" rx="2" fill="#00d4aa"/>
  <text x="416" y="497" fill="#9ca3af" font-size="9.5">Application + Helmfile</text>
  <rect x="570" y="488" width="10" height="10" rx="2" fill="#ff6b6b"/>
  <text x="586" y="497" fill="#9ca3af" font-size="9.5">Alerting + Visualisation</text>
</svg>
