<?xml version="1.0" encoding="UTF-8"?>
<svg viewBox="0 0 960 540" xmlns="http://www.w3.org/2000/svg">
  <defs>
    <marker id="a-purple" markerWidth="8" markerHeight="6" refX="8" refY="3" orient="auto"><path d="M0,0 L8,3 L0,6" fill="#6c63ff"/></marker>
    <marker id="a-green" markerWidth="8" markerHeight="6" refX="8" refY="3" orient="auto"><path d="M0,0 L8,3 L0,6" fill="#00d4aa"/></marker>
    <marker id="a-yellow" markerWidth="8" markerHeight="6" refX="8" refY="3" orient="auto"><path d="M0,0 L8,3 L0,6" fill="#ffd93d"/></marker>
    <marker id="a-red" markerWidth="8" markerHeight="6" refX="8" refY="3" orient="auto"><path d="M0,0 L8,3 L0,6" fill="#ff6b6b"/></marker>
    <marker id="a-grey" markerWidth="8" markerHeight="6" refX="8" refY="3" orient="auto"><path d="M0,0 L8,3 L0,6" fill="#4a4e6a"/></marker>
    <linearGradient id="gM" x1="0" y1="0" x2="1" y2="1"><stop offset="0%" stop-color="#6c63ff"/><stop offset="100%" stop-color="#4f46e5"/></linearGradient>
    <linearGradient id="gDC" x1="0" y1="0" x2="1" y2="1"><stop offset="0%" stop-color="#1e3a5f"/><stop offset="100%" stop-color="#1a1d2e"/></linearGradient>
    <linearGradient id="gA" x1="0" y1="0" x2="1" y2="1"><stop offset="0%" stop-color="#00d4aa"/><stop offset="100%" stop-color="#059669"/></linearGradient>
  </defs>

  <!-- Docker host background -->
  <rect x="20" y="220" width="920" height="306" rx="14" fill="#131522" stroke="#2a2e45" stroke-width="1.5"/>
  <text x="480" y="516" text-anchor="middle" fill="#3a3f5c" font-size="13" font-weight="700" letter-spacing=".08em">DOCKER HOST</text>

  <!-- MASTER -->
  <rect x="340" y="16" width="280" height="106" rx="12" fill="url(#gM)" style="filter:drop-shadow(0 0 8px rgba(108,99,255,.35))"/>
  <text x="480" y="46" text-anchor="middle" fill="#fff" font-size="15" font-weight="700">prometheusMaster</text>
  <text x="480" y="66" text-anchor="middle" fill="rgba(255,255,255,.7)" font-size="11">master.prom.localhost</text>
  <text x="480" y="86" text-anchor="middle" fill="rgba(255,255,255,.55)" font-size="10.5">retention 24h  ·  rules + alerting</text>
  <text x="480" y="106" text-anchor="middle" fill="rgba(255,255,255,.45)" font-size="10">Alertmanager :9093</text>

  <!-- Federation arrows -->
  <line x1="400" y1="122" x2="220" y2="188" stroke="#6c63ff" stroke-width="2" stroke-dasharray="6,3" marker-end="url(#a-purple)"/>
  <line x1="560" y1="122" x2="740" y2="188" stroke="#6c63ff" stroke-width="2" stroke-dasharray="6,3" marker-end="url(#a-purple)"/>
  <text x="286" y="148" fill="#6c63ff" font-size="10" font-weight="600" transform="rotate(-18,286,148)">/federate</text>
  <text x="666" y="148" fill="#6c63ff" font-size="10" font-weight="600" transform="rotate(18,666,148)">/federate</text>

  <!-- DC01 -->
  <rect x="60" y="190" width="280" height="80" rx="10" fill="url(#gDC)" stroke="#6c63ff" stroke-width="1.2"/>
  <text x="200" y="218" text-anchor="middle" fill="#e4e4e7" font-size="13" font-weight="700">prometheusDC01</text>
  <text x="200" y="238" text-anchor="middle" fill="#9ca3af" font-size="10.5">dc01.prom.localhost · retention 2h</text>
  <text x="200" y="258" text-anchor="middle" fill="#6c63ff" font-size="10">scrape: exporters locaux</text>

  <!-- DC02 -->
  <rect x="620" y="190" width="280" height="80" rx="10" fill="url(#gDC)" stroke="#6c63ff" stroke-width="1.2"/>
  <text x="760" y="218" text-anchor="middle" fill="#e4e4e7" font-size="13" font-weight="700">prometheusDC02</text>
  <text x="760" y="238" text-anchor="middle" fill="#9ca3af" font-size="10.5">dc02.prom.localhost · retention 2h</text>
  <text x="760" y="258" text-anchor="middle" fill="#6c63ff" font-size="10">scrape: exporters locaux</text>

  <!-- Scrape arrows DC01 -->
  <line x1="120" y1="270" x2="120" y2="308" stroke="#4a4e6a" stroke-width="1.2" stroke-dasharray="3,3" marker-end="url(#a-grey)"/>
  <line x1="200" y1="270" x2="200" y2="308" stroke="#4a4e6a" stroke-width="1.2" stroke-dasharray="3,3" marker-end="url(#a-grey)"/>
  <line x1="280" y1="270" x2="280" y2="308" stroke="#4a4e6a" stroke-width="1.2" stroke-dasharray="3,3" marker-end="url(#a-grey)"/>
  <!-- Scrape arrows DC02 -->
  <line x1="680" y1="270" x2="680" y2="308" stroke="#4a4e6a" stroke-width="1.2" stroke-dasharray="3,3" marker-end="url(#a-grey)"/>
  <line x1="760" y1="270" x2="760" y2="308" stroke="#4a4e6a" stroke-width="1.2" stroke-dasharray="3,3" marker-end="url(#a-grey)"/>
  <line x1="840" y1="270" x2="840" y2="308" stroke="#4a4e6a" stroke-width="1.2" stroke-dasharray="3,3" marker-end="url(#a-grey)"/>

  <!-- Exporters DC01 -->
  <rect x="60" y="310" width="130" height="38" rx="7" fill="#1a1d2e" stroke="#2a2e45" stroke-width="1"/>
  <text x="125" y="334" text-anchor="middle" fill="#9ca3af" font-size="10">node_exporter</text>
  <rect x="200" y="310" width="110" height="38" rx="7" fill="#1a1d2e" stroke="#2a2e45" stroke-width="1"/>
  <text x="255" y="334" text-anchor="middle" fill="#9ca3af" font-size="10">cadvisor</text>
  <rect x="60" y="358" width="130" height="38" rx="7" fill="#1a1d2e" stroke="#2a2e45" stroke-width="1"/>
  <text x="125" y="382" text-anchor="middle" fill="#9ca3af" font-size="10">process_exporter</text>

  <!-- Exporters DC02 -->
  <rect x="620" y="310" width="130" height="38" rx="7" fill="#1a1d2e" stroke="#2a2e45" stroke-width="1"/>
  <text x="685" y="334" text-anchor="middle" fill="#9ca3af" font-size="10">node_exporter</text>
  <rect x="760" y="310" width="130" height="38" rx="7" fill="#1a1d2e" stroke="#2a2e45" stroke-width="1"/>
  <text x="825" y="334" text-anchor="middle" fill="#9ca3af" font-size="10">cadvisor</text>
  <rect x="620" y="358" width="130" height="38" rx="7" fill="#1a1d2e" stroke="#2a2e45" stroke-width="1"/>
  <text x="685" y="382" text-anchor="middle" fill="#9ca3af" font-size="10">process_exporter</text>

  <!-- Traefik -->
  <rect x="370" y="236" width="160" height="52" rx="9" fill="#1a1d2e" stroke="#ffd93d" stroke-width="1.5"/>
  <text x="450" y="259" text-anchor="middle" fill="#ffd93d" font-size="12" font-weight="700">Traefik</text>
  <text x="450" y="276" text-anchor="middle" fill="#9ca3af" font-size="9.5">:80 · /metrics</text>

  <!-- Traefik metrics arrows -->
  <line x1="370" y1="262" x2="310" y2="262" stroke="#ffd93d" stroke-width="1.2" stroke-dasharray="4,3" marker-end="url(#a-yellow)"/>
  <line x1="530" y1="262" x2="620" y2="262" stroke="#ffd93d" stroke-width="1.2" stroke-dasharray="4,3" marker-end="url(#a-yellow)"/>

  <!-- training-app -->
  <rect x="380" y="310" width="140" height="44" rx="8" fill="url(#gA)" opacity=".9"/>
  <text x="450" y="330" text-anchor="middle" fill="#fff" font-size="11" font-weight="600">training-app</text>
  <text x="450" y="344" text-anchor="middle" fill="rgba(255,255,255,.65)" font-size="9">whoami · app.localhost</text>
  <line x1="450" y1="288" x2="450" y2="308" stroke="#00d4aa" stroke-width="1.5" marker-end="url(#a-green)"/>

  <!-- Grafana -->
  <rect x="380" y="378" width="140" height="52" rx="9" fill="#1a1d2e" stroke="#ff6b6b" stroke-width="1.2"/>
  <text x="450" y="401" text-anchor="middle" fill="#ff6b6b" font-size="12" font-weight="700">Grafana</text>
  <text x="450" y="418" text-anchor="middle" fill="#9ca3af" font-size="9.5">+ Postgres</text>

  <!-- Alertmanager -->
  <rect x="760" y="410" width="140" height="42" rx="8" fill="#1a1d2e" stroke="#ff6b6b" stroke-width="1"/>
  <text x="830" y="436" text-anchor="middle" fill="#ff6b6b" font-size="11" font-weight="600">Alertmanager</text>
  <path d="M620,60 Q880,60 880,230 Q880,400 830,408" stroke="#ff6b6b" stroke-width="1.2" stroke-dasharray="5,3" fill="none" marker-end="url(#a-red)"/>

  <!-- Legend -->
  <rect x="50" y="460" width="10" height="10" rx="2" fill="#6c63ff"/>
  <text x="66" y="469" fill="#9ca3af" font-size="9.5">Federation /federate</text>
  <rect x="210" y="460" width="10" height="10" rx="2" fill="#4a4e6a"/>
  <text x="226" y="469" fill="#9ca3af" font-size="9.5">Scrape targets</text>
  <rect x="350" y="460" width="10" height="10" rx="2" fill="#ffd93d"/>
  <text x="366" y="469" fill="#9ca3af" font-size="9.5">Metrics exposure</text>
  <rect x="500" y="460" width="10" height="10" rx="2" fill="#00d4aa"/>
  <text x="516" y="469" fill="#9ca3af" font-size="9.5">HTTP traffic</text>
  <rect x="620" y="460" width="10" height="10" rx="2" fill="#ff6b6b"/>
  <text x="636" y="469" fill="#9ca3af" font-size="9.5">Alerting</text>
</svg>
